<?xml version="1.0" encoding="utf-8"?>
<!-- Generator: Adobe Illustrator 27.7.0, SVG Export Plug-In . SVG Version: 6.00 Build 0)  -->
<svg version="1.1" id="Layer_1" xmlns="http://www.w3.org/2000/svg" xmlns:xlink="http://www.w3.org/1999/xlink" x="0px" y="0px"
	 viewBox="0 0 100.7 99" style="enable-background:new 0 0 100.7 99;" xml:space="preserve">
<style type="text/css">
	.st0{fill:#F2F2F2;}
	.st1{fill:#22B573;}
	.st2{fill:none;}
	.st3{fill:#EF8031;}
	.st4{fill:#F7931E;}
	.st5{fill:#F15A24;}
	.st6{fill:#8C6239;}
	.st7{fill:#25C77E;}
	.st8{fill:#1D995E;}
	.st9{fill:#39B54A;}
	.st10{fill:#2CE58C;}
	.st11{fill:#55C690;}
	.st12{fill:#FDE92B;}
	.st13{fill:#91BE4A;}
	.st14{fill:#FFFFFF;}
</style>
<path class="st0" d="M51.2,97.4c-26.5,0-47.9-21.5-47.9-47.9C3.3,23,24.7,1.6,51.2,1.6s47.9,21.5,47.9,47.9c0,12.7-5.1,24.9-14,33.9
	C76.1,92.4,63.9,97.4,51.2,97.4z"/>
<path class="st1" d="M51.2,3.2c25.5,0,46.1,20.7,46.1,46.2S76.5,95.5,51,95.5S4.9,74.8,4.9,49.3C5,30.8,16.1,14.1,33.1,6.9
	C38.8,4.4,45,3.2,51.2,3.2 M51.2,0C23.8,0,1.6,22.2,1.6,49.5C1.6,76.8,23.8,99,51.2,99s49.5-22.2,49.5-49.5
	C100.7,22.2,78.5,0,51.2,0z"/>
<path class="st2" d="M64.3,40.8L64.3,40.8l26.9,6.5L64.3,40.8z"/>
<path class="st2" d="M50.6,0.4C38.3,0.4,26.5,5,17.5,13.2L22,29.7l22.5-16.8l26.8,4.6l8.5,7.8l11.4,22L74.9,63.4l1-13.1l-8.6,1.8
	l-7.2-4.3l15.8,2.5l-18.4-2.9l4.5,36.7l-5.3,14.4c24.3-3.1,43.1-23.8,43.1-48.9C99.9,22.5,77.8,0.4,50.6,0.4L50.6,0.4z"/>
<path d="M15,4.4L15,4.4L15,4.4L15,4.4z"/>
<path class="st3" d="M64.3,40.8l26.9,6.5l-11.4-22L64.3,40.8z"/>
<path class="st4" d="M64.4,40.8l11.6,9.5l15.2-3L64.4,40.8z"/>
<path class="st5" d="M75.9,50.4l-1,13.1l16.2-16.1L75.9,50.4z"/>
<path class="st3" d="M64.4,40.8L64.4,40.8l-6.8,6.6l18.4,2.9L64.4,40.8L64.4,40.8z"/>
<path class="st3" d="M64.4,40.8L64.4,40.8l11.6,9.5L64.4,40.8z"/>
<path class="st6" d="M60.1,47.9l7.2,4.3l8.6-1.8L60.1,47.9z"/>
<path class="st7" d="M22.9,90.4c2.7,1.8,5.6,3.4,8.6,4.7l30.6-10.9l-4.5-36.7l-27.2,16L22.9,90.4z"/>
<path class="st1" d="M17.3,40.2L8.3,24.3c-4.6,7.6-7,16.4-7,25.3c0,16.9,8.5,31.8,21.5,40.7l7.5-27L17,40.8L17.3,40.2z"/>
<path class="st1" d="M22.9,90.4l7.5-27L22.9,90.4L22.9,90.4z"/>
<path class="st8" d="M8.4,24.3l8.9,15.8L22,29.7l-4.5-16.4C13.9,16.5,10.8,20.2,8.4,24.3L8.4,24.3z"/>
<path class="st8" d="M17.3,40.2L17.3,40.2L8.4,24.3l0,0L17.3,40.2z"/>
<path class="st9" d="M30.4,63.4l27.2-16L22,29.7L30.4,63.4z M17.3,40.2L17,40.8l13.4,22.6L17.3,40.2z M17.3,40.2l13.1,23.3L22,29.7
	L17.3,40.2z"/>
<path class="st9" d="M17.3,40.2l13.1,23.3L17.3,40.2L17.3,40.2z"/>
<path class="st10" d="M31.6,95.1c6,2.5,12.5,3.8,19.1,3.8c2.1,0,4.1-0.1,6.2-0.4l5.3-14.4L31.6,95.1z"/>
<path class="st11" d="M-1.3,80.3L-1.3,80.3L-1.3,80.3L-1.3,80.3z"/>
<path d="M57.6,47.5l6.7-6.7l15.5-15.5l-17.5-0.4L57.6,47.5z M63.2,29.1l2.1-0.7l1.6,1.4L66.4,32l-2.1,0.7l-1.6-1.4L63.2,29.1z"/>
<path class="st12" d="M57.6,47.5l4.7-22.5l-17.8-12L57.6,47.5z"/>
<path class="st13" d="M71.3,17.5l-26.8-4.6l17.8,12l17.5,0.4L71.3,17.5z"/>
<path class="st13" d="M57.6,47.5L44.4,12.9L22,29.7L57.6,47.5z"/>
<path class="st14" d="M64.4,32.7l2.1-0.7l0.4-2.1l-1.6-1.4l-2.1,0.7l-0.4,2.1L64.4,32.7z"/>
</svg>
