<?xml version="1.0" encoding="utf-8"?>
<!-- Generator: Adobe Illustrator 27.7.0, SVG Export Plug-In . SVG Version: 6.00 Build 0)  -->
<svg version="1.1" id="Layer_1" xmlns="http://www.w3.org/2000/svg" xmlns:xlink="http://www.w3.org/1999/xlink" x="0px" y="0px"
	 viewBox="0 0 572 761.4" style="enable-background:new 0 0 572 761.4;" xml:space="preserve">
<style type="text/css">
	.st0{clip-path:url(#SVGID_00000151504553923862507840000004889449497093753245_);}
	.st1{fill:none;}
	.st2{fill:#FFFFFF;}
</style>
<g>
	<defs>
		<rect id="SVGID_1_" x="-318.1" y="-318.6" width="1080" height="1080"/>
	</defs>
	<clipPath id="SVGID_00000080199222449472550660000007638684497820147384_">
		<use xlink:href="#SVGID_1_"  style="overflow:visible;"/>
	</clipPath>
	<g style="clip-path:url(#SVGID_00000080199222449472550660000007638684497820147384_);">
		<g id="Layer-1">
			<g>
				<path class="st1" d="M-596.2-573.8v1653.2H1057V-573.8H-596.2z"/>
				<path class="st1" d="M26.5,200.7c-6.3-6.3-16.2,3.8-16.2-10.5c0-9.5,29.3-32.9,21.8-40.4c-6.2,3.1-12.5-5.8-8.9-11.3
					c8.1-12.1,18.3-26.1,29.9-34.7c-2.7-3.3-6.4-4.9-8.9-8.1C36.1,85.4,75.6,70.8,81.4,65c5-5-13.5-13.4-3.2-18.6
					c12.5-6.2,30.9-3.3,42.8-10.5c6.1-3.7-11.2-10.8-0.8-17.8c8.3-5.5,19.9-0.8,29.9-0.8c4.5,0,16.6,3.6,20.2,0
					C160.4-2.4,188,5.5,200.2,6.8c23.7,2.6,59.2,6.1,79.2,21c30.3,22.8,56.7,37.9,77.5,72.7c7.8,13,12.8,28.2,17,42.8
					c1.5,5.4,1.9,17.6,6.5,21c8.1,6.1,27.8,6.4,38,8.9c33.7,8.4,67.7,16.6,101.8,23.4c15.7,3.1,43.8,5.9,46,26.6
					c4.2,40.3-31,34.8-59.8,32.3c-18-1.6-36-3.3-54.1-1.6c-91,8.7-192.7,6.6-217.2,117.1c-14,63.1,11.2,121.6,33.9,178.5
					c16.3,40.7,32.9,81,46.8,122.8c7.3,21.8,13.2,44.3,17,67c0.5,3.1,1.5,21.7,5.6,21.8c46.3,0.8,92.6,0.2,138.9,0
					c31.3-0.2,70.2-17.4,97.7-33.9c72.4-43.5,117.7-124.5,117.9-208.4c0.5-179,0.8-358,0.8-537.1c0-125.6-112.8-238.6-237.4-239
					c-149.4-0.5-298.8-0.8-448.2-0.8c-30.7,0-60.6,7.3-88.8,18.6c-19.9,7.9-40.5,20.9-57.3,34.7c-63.4,51.8-92,117.9-92.9,198.7
					c-0.4,39.6-0.3,79.2-0.8,118.7c-0.9,68.1,0,136.2,0,204.3v129.2c0,32.4-1.4,65.2,0.8,97.7c4.4,66,57.9,152.9,115.5,181.7
					c19.3,9.7,41.3,25.5,63,29.1c37,6.2,75.2,3.8,114.7,4.8c26.4,0.7,52.8,2.4,79.1,1.6c1.1,0,2.3-1.3,2.4-2.4
					c1.1-8.7,1.3-24.5-3.2-25c-8.1-0.9-16.1,2.7-16.1-7.3s12-6.3,15.3-12.9c2-4-2.4-24.2-7.3-26.7c-5.1-2.6-11.9,5.5-16.1-1.6
					c-7.5-12.5,10.3-12,12.9-18.6c1.6-4-4.4-19.4-6.5-23.4c-3.1-6.2-15,4.5-20.2-3.2c-7.2-10.9,14-12.8,12.9-20.2
					c-0.5-3.7-4.6-20.6-8.9-21.8c-5.5-1.6-17.1,7.3-19.4-1.6c-2.9-11.8,9.1-10.2,12.9-17.8c1.4-2.8-6.1-19.9-8.1-22.6
					c-4.6-6.1-18.5,7.2-21-4c-2.4-10.7,9.2-9.7,12.9-16.2c1.9-3.4-4.9-18.8-7.3-21.8c-5.8-7.2-15,5.7-21-3.2
					c-7.2-10.8,14.1-13,12.9-21c-0.5-3.6-4.1-19.7-8.1-21c-5.1-1.7-18.3,8.3-19.4-1.6c-1.4-12.8,14.7-11,13.7-21
					c-0.5-4.8-3.8-17.6-8.1-20.2c-4.1-2.5-16.8,7.1-17.8-2.4c-1.3-13.4,9.6-9.5,13.7-17.8c1.7-3.3-3.1-19.2-4.8-22.6
					c-3.4-6.9-17.3,5.4-20.2-4c-4.7-15.4,15.6-11.2,14.5-23.4c-0.3-3.2-1.6-18.3-4.8-19.4c-4.2-1.4-16,5.6-17-3.2
					c-1.8-16,16.2-12.5,16.2-18.6c0-4.3-0.8-22.3-4-23.4c-4.9-1.6-14.1,5.7-16.2-2.4c-4.6-18.5,16.7-13.5,17-21c0.2-7,0.5-14,0-21
					c-0.4-5.7-16.8,4.3-17.8-4.9c-1.8-18.4,15.9-13.1,18.6-21C26.1,214.6,23.4,206.8,26.5,200.7L26.5,200.7z"/>
				<path class="st2" d="M215.5,102.1c-16.6-0.4-19.9,29.9-2.4,31.5C237.2,135.8,241.3,102.8,215.5,102.1z"/>
				<path class="st2" d="M176.2,4c-9.7,0.2-16.6,2.6-8.3,10.9c-5.9,8.9-71.6-13.1-46.8,17.8c-9.2,9.2-31.5,4-42.8,12.1
					c-11.2,8,5.5,12.6,2.4,18.6C74.4,75.8,21.5,82.9,51.5,103c-10.4,10.4-23.1,22.1-29.9,35.5c-3.2,6.4,3.4,16.5,10.5,12.9
					c0.7,0.7,0.8,0.8,1,1c-2.4,2.7-5.1,7.5-5.9,8.7c-6.2,9.3-18.6,21.4-18.6,33.1c0,15.9,18.4-6.1,14.5,21
					c-1.2,8.1-11.9,11.1-17.8,16.9c-2.3,2.3-1.8,7.3-1.6,9.7c1,9.7,13.1,3.5,18.4,4.6c-3.5,5.5,0.1,14.3-0.6,21.2
					c-0.5,4.8-16.8,6-17.8,13.7c-2.3,18.3,18,10.6,18.6,12.9c1.5,6-0.3,14.6,2.4,20.2c-4.8,4.8-10.3,4.7-15.4,10.5
					c-1.8,2-0.8,5.4-0.8,8.1c0,9.4,13.3,4.1,16.9,4.9c2.4,0.5,5.4,19.4,4.8,21.8c-1.6,7.1-20,5.7-14.5,19.4c3.7,9.2,12.2,3.1,18.6,4
					c2.6,0.4,2.5,5.8,4,7.3c-2.3,4.7,3.7,9.7,2.4,14.5c-0.5,2-12.8,10.4-12.9,10.5c-10.3,10.3,9.8,16.1,17.8,12.1
					c3,3,8.3,17.6,7.2,21.8c-1.5,6-21.5,9.4-12.9,19.4c7.2,8.4,19.1-0.6,21,3.2c1.6,3.1,6.6,17,5.7,20.2c-1.7,6-13.7,6.7-13.7,16.2
					c0,12.8,15.5,3.3,20.2,4.8c3.1,1,9.7,18.9,8.9,21.8c-2,7.1-15.7,6.1-12.9,17c3.3,13.3,19-0.1,21.8,5.6
					c1.8,3.6,8.2,19.2,5.7,22.6c-4.1,5.5-12.1,4.9-12.1,13.7c0,13.4,15.1,4.8,21,5.6c3.8,0.5,5.9,15.7,8.5,21.5
					c-4.3,5.3-15.5,7.1-14.2,16.4c1.9,13,16.5,2.6,22.1,9.3c-0.1,0.2-0.2,0.2-0.3,0.4c-1.6,3.8,5.4,14.1,4.9,18.6
					c-0.8,6.8-14.2,5.4-12.9,16.9c1.4,12.8,17.1,1.8,20.2,8.1c1.5,3,4.9,19.2,4,21.8c-2.1,6.4-15.3,3.4-15.3,14.5
					c0,12.4,17,3.6,18.6,9.7c1.8,7.3-5.3,20.6,3.2,24.2c11.6,5,29.5,0,42,0c26.5,0,51.5,1.1,82.4,0.8c22.1-0.2,45,0.8,67,0
					c1.1,0,2.2-1.3,2.4-2.4c1.6-7.2-3.4-21-4.8-28.3c-4.8-23.9-11.7-47.1-19.4-70.2c-36.8-110.5-137.9-260.3-36.4-361.8
					c33.7-33.7,89.4-35.6,133.2-39.6c25.4-2.3,51.2-4.9,76.7-4.9c21.7,0,65.3,16.5,78.3-11.3c-19.1,2.1-55.5-5.9-67.4-7.6
					c-56.3-7.9-115.5-21.1-172.4-16.4c-18.6,1.6-37.4,3.7-56,6.2c-5.6,0.7-17.8,5.3-22.6,0.8c-11.4-10.5,1.5-17.6,12-19
					c28.2-3.7,56.7-8.9,85.1-8.4c32.2,0.5,63.9,6.3,95.8,10.6c19.6,2.6,39.1,4.9,58.7,7.6c19.8,2.8,39.6,6,59.5,8.5
					c1.7,0.2,6.3,0.9,10.7,2.1c-1.1-18.9-23.9-26.5-41.4-30.4c-36.4-8.1-72.9-16-109-25.1c-9.9-2.5-29.1-2.8-37.2-8.9
					c-4.6-3.5-11.8-42.5-17.8-52.5c-17.5-29.2-37.8-57.1-67.8-75.1C266.8,18.2,235.7,9.9,201,6C198.3,5.7,185.8,3.8,176.2,4L176.2,4
					z M212,77.6c21.2,0.7,38.5,11.2,47.8,34c10.8,26.4-8.1,71.4-41.6,71.4c-14.3,0-30.8-0.5-41.7-11.2c-32.5-32-23.4-89.4,26.1-93.9
					C205.9,77.6,209,77.5,212,77.6L212,77.6z M132.6,644.3c-0.4,0.5-0.8,0.8-1.1,1.3c-0.6-0.3-1.2-0.5-1.9-0.8
					C130.6,644.7,131.6,644.5,132.6,644.3L132.6,644.3z"/>
				<path class="st1" d="M461,107.6h-1.4C453,75.3,424.4,51,390.2,51c-25.2,0-47.2,13.3-59.8,33.3c-7.3-3.3-15.3-4.9-25.2-4.9
					s-17.9,1.7-25.2,4.9C267.5,64.3,245.5,51,220.3,51c-34.2,0-62.8,24.4-69.4,56.6h-1.4c-7.8,0-14.2,6.3-14.2,14.2
					s6.3,14.2,14.2,14.2h1.4c6.6,32.3,35.2,56.6,69.4,56.6c39,0,70.8-31.8,70.8-70.8c0-3.7-0.5-7.3-1.1-10.9
					c4.1-2.3,8.5-3.2,15.3-3.2s11.2,0.9,15.3,3.2c-0.6,3.6-1.1,7.2-1.1,10.9c0,39,31.8,70.8,70.8,70.8c34.2,0,62.8-24.4,69.4-56.6
					h1.4c7.8,0,14.2-6.3,14.2-14.2S468.8,107.6,461,107.6L461,107.6z"/>
				<path class="st2" d="M321.3,144.4c0,0,13.5-2.7,33.7,1.6c39.7,8.3,45.6,22.3,79.8,30.2l-6.1,9.1l-6.1,9.1l-26.5-0.4l-26.5-0.4
					l-14.7-3.6l-14.7-3.6l-7.1-6.2L326,174l-2.3-14.8L321.3,144.4L321.3,144.4z"/>
			</g>
		</g>
	</g>
</g>
</svg>
