<?xml version="1.0" encoding="utf-8"?>
<!-- Generator: Adobe Illustrator 27.7.0, SVG Export Plug-In . SVG Version: 6.00 Build 0)  -->
<svg version="1.1" id="Layer_1" xmlns="http://www.w3.org/2000/svg" xmlns:xlink="http://www.w3.org/1999/xlink" x="0px" y="0px"
	 viewBox="0 0 741.2 748" style="enable-background:new 0 0 741.2 748;" xml:space="preserve">
<style type="text/css">
	.st0{fill:url(#Combined-Shape_00000105386380002520163290000004147927214614055565_);}
</style>
<g id="Light">
	<g id="AppIcon-light-blue">
		
			<linearGradient id="Combined-Shape_00000139271552599239447580000003733930332700549775_" gradientUnits="userSpaceOnUse" x1="-587.2083" y1="916.549" x2="-586.3942" y2="916.0703" gradientTransform="matrix(741.1644 0 0 -748.0001 435357.6562 685889.0625)">
			<stop  offset="0" style="stop-color:#1F4EA7"/>
			<stop  offset="1" style="stop-color:#00DDFF"/>
		</linearGradient>
		<path id="Combined-Shape" style="fill:url(#Combined-Shape_00000139271552599239447580000003733930332700549775_);" d="M370.6,0
			c98.1,0,413.3,578.8,365.7,675.3S53.1,772.8,5,675.3S272.5,0,370.6,0z M370.7,152.2c-64.3,0-271.1,378.5-239.6,442.4
			s448,63.2,479.2,0C641.5,531.4,434.9,152.2,370.7,152.2z M370.1,289.1c32.6,0,137.2,191.9,121.4,223.9
			c-15.8,32-226.8,32.3-242.8,0C232.7,480.7,337.5,289.1,370.1,289.1z"/>
	</g>
</g>
</svg>
