<?xml version="1.0" encoding="UTF-8"?>
<svg id="Layer_1" data-name="Layer 1" xmlns="http://www.w3.org/2000/svg" viewBox="0 0 358.73 307">
  <defs>
    <style>
      .cls-1 {
        fill: #fff;
        fill-rule: evenodd;
      }
    </style>
  </defs>
  <path class="cls-1" d="m266.39,263.17c50.93,0,92.34-41.41,92.34-92.34,0-25.36-10.79-50.02-29.22-67.37-.4-49.08-40.43-88.86-89.6-88.86-14.28,0-28.18,3.36-40.76,9.8C182.61,8.78,160.74,0,137.68,0,89.57,0,50.21,38.09,48.16,85.7,19,102,.61,132.91.61,166.73c0,51.18,41.62,92.8,92.8,92.8,2.42,0,4.85-.1,7.27-.28,17.1,28.76,48.36,46.83,82.19,46.83s62.19-16.26,79.79-42.98c1.25.05,2.49.08,3.73.08Zm-83.52,18.53c-27.41,0-52.63-15.99-64.38-40.8l-3.97-8.4-9.15,1.61c-3.92.69-7.94,1.04-11.95,1.04-37.72,0-68.43-30.71-68.43-68.43,0-26.92,15.81-51.36,40.37-62.43l7.55-3.4-.39-8.28c-.05-1.01-.07-2.02-.07-3.03,0-35.96,29.27-65.23,65.23-65.23,19.35,0,37.49,8.45,49.95,23.27l7.02,8.35,9.07-6.05c10.76-7.18,23.24-10.96,36.19-10.96,35.96,0,65.23,29.27,65.23,65.23,0,1.3-.04,2.61-.12,3.9l-.38,6.21,4.81,3.95c15.58,12.81,24.91,32.49,24.91,52.58,0,37.47-30.5,67.97-67.97,67.97-2.89,0-5.83-.19-8.72-.56l-8.27-1.06-3.99,7.32c-12.51,22.98-36.41,37.2-62.55,37.2Zm46.29-97.48l.24-.1c3.17-1.36,4.3-2.56,4.3-5.86v-4.15c0-3.65-2.1-6-5.53-6h-.19l-.69.15c-7.66,2.7-15.2,4.06-22.4,4.06s-14.24-1.35-21.02-4.03l-.21-.08-.77-.1c-3.43,0-5.53,2.35-5.53,6v4.15c0,3.11,1.17,4.52,3.9,5.7.15.06.22.1.3.13.07.03.15.06.3.12,7.41,3.17,15.17,4.78,23.04,4.78s15.99-1.6,24.26-4.77Zm-105.66-34.1c0-3.34,1.74-5.19,4.06-5.67l22.4-5.88-22.45-5.89c-2.33-.61-4.01-2.45-4.01-5.66v-7.06c0-3.08,1.85-4.41,3.97-4.41.69,0,1.4.15,2.11.42l39.98,12.93c3.04,1.01,4.71,3.45,4.71,6.79v5.78c0,3.34-1.67,5.78-4.71,6.79l-40.06,12.96c-.68.2-1.28.3-1.87.3-2.51,0-4.12-1.8-4.12-4.43v-6.95Z"/>
</svg>