<svg xmlns="http://www.w3.org/2000/svg" fill="none" viewBox="0 0 1160 966" height="966" width="1160">
<path stroke-miterlimit="10" stroke-width="28" stroke="black" fill="black" d="M361.2 809.1C352.2 809.1 347.7 797.1 347.7 773V177.9C347.7 166.4 345.4 161 340.7 161.7C312.3 168.9 298 172.5 297.6 172.5C289.7 173.2 285.8 165.3 285.8 148.8V97.1C285.8 82.8 290.1 74.7 298.7 72.9L440.9 36.3C442 36 443.6 35.8 445.7 35.8C453.6 35.8 457.5 44.2 457.5 61.1V773.1C457.5 797.2 452.8 809.2 443.5 809.2L361.2 809.1V809.1ZM729.5 810.2C715.1 810.2 702.7 809.2 692.1 807.2C681.5 805.2 670.5 800.7 659 793.7C647.5 786.7 638.1 777.1 630.7 764.9C623.3 752.7 617.3 735.6 612.7 713.7C608.1 691.8 605.7 665.8 605.7 635.6V359.4C605.7 352.2 603.7 348.6 599.8 348.6H566.4C557.4 348.6 552.9 340 552.9 322.8V293.7C552.9 276.1 557.4 267.3 566.4 267.3H599.8C603.7 267.3 605.7 262.5 605.7 252.8L615.4 43.3C616.5 24.3 621.1 14.8 629.4 14.8H683.3C692.3 14.8 696.8 24.3 696.8 43.3V252.8C696.8 262.5 698.9 267.3 703.3 267.3H772C781 267.3 785.5 276.1 785.5 293.7V322.8C785.5 340 781 348.6 772 348.6H703.1C700.6 348.6 698.9 349.2 698 350.5C697.1 351.7 696.7 354.7 696.7 359.4V637.3C696.7 658.1 698 675.5 700.7 689.3C703.4 703.1 707.3 713.3 712.5 719.7C717.7 726.1 722.9 730.5 728.1 732.6C733.3 734.8 739.7 735.8 747.2 735.8H785.4C795.1 735.8 799.9 742.5 799.9 755.7V788C799.9 802.7 794.7 810.1 784.3 810.1L729.5 810.2V810.2ZM936.2 874.8C944.4 874.8 951.6 868.1 957.7 854.6C963.8 841.1 966.9 822 966.9 797.2C966.9 791.4 963.3 771.5 956.1 737.4L850.5 298.5C849.8 293.5 849.4 289.5 849.4 286.6C849.4 273.7 852.1 267.2 857.5 267.2H922.7C927.7 267.2 931.8 268.9 935.1 272.3C938.4 275.7 940.9 282.6 942.6 293L1012.6 663.5C1014 667.8 1014.9 670 1015.3 670C1016.7 670 1017.5 668 1017.5 664.1L1072.4 294.6C1073.8 283.8 1076.1 276.6 1079.1 272.8C1082.1 269 1086 267.1 1090.7 267.1H1135.9C1142 267.1 1145.1 274.1 1145.1 288.1C1145.1 291.3 1144.7 295.5 1144 300.5L1048.1 799.8C1040.6 841.1 1032.3 872.7 1023.3 894.6C1014.3 916.5 1004.3 931.4 993.1 939.3C982 947.2 967.3 951.3 948.9 951.7H943.5C914.4 951.7 894.7 944 884.3 928.5C881.4 925.3 880 917 880 903.7C880 877.1 884.3 863.8 892.9 863.8C893.6 863.8 900.1 865.6 912.3 869.2C924.7 873 932.6 874.8 936.2 874.8V874.8Z"></path>
<path stroke-miterlimit="10" stroke-width="28" stroke="black" fill="black" d="M90.2001 810.1C81.2001 810.1 76.7001 798.1 76.7001 774V178.9C76.7001 167.4 74.4001 162 69.7001 162.7C41.3001 169.9 27.0001 173.5 26.6001 173.5C18.7001 174.2 14.8 166.3 14.8 149.8V98.1C14.8 83.8 19.1 75.7 27.7 73.9L170 37.2C171.1 36.9 172.7 36.7 174.8 36.7C182.7 36.7 186.6 45.1 186.6 62V774C186.6 798.1 181.9 810.1 172.6 810.1H90.2001V810.1Z"></path>
</svg>
