<?xml version="1.0" encoding="UTF-8"?>
<svg id="Layer_1" data-name="Layer 1" xmlns="http://www.w3.org/2000/svg" xmlns:xlink="http://www.w3.org/1999/xlink" viewBox="0 0 42 48">
  <defs>
    <style>
      .cls-1 {
        fill: url(#linear-gradient);
        fill-rule: evenodd;
      }
    </style>
    <linearGradient id="linear-gradient" x1="-9.09" y1="13.64" x2="40.18" y2="33.78" gradientTransform="translate(0 50) scale(1 -1)" gradientUnits="userSpaceOnUse">
      <stop offset="0" stop-color="#4b2efb"/>
      <stop offset="1" stop-color="#e65ffc"/>
    </linearGradient>
  </defs>
  <path class="cls-1" d="m2,7.5c0-1.38,0-2.07.27-2.62.24-.49.61-.9,1.09-1.19.54-.33,1.26-.43,2.7-.62L26.6.26c1.86-.25,2.8-.38,3.52-.11.64.23,1.17.67,1.5,1.23.38.64.38,1.53.38,3.32v38.59c0,1.79,0,2.68-.38,3.32-.34.56-.87,1-1.5,1.23-.72.27-1.66.14-3.52-.11h0l-20.54-2.79h0c-1.44-.2-2.16-.29-2.7-.62-.48-.29-.86-.71-1.09-1.19-.27-.56-.27-1.24-.27-2.62V7.5Zm22,13.01c0-.42,0-.63.07-.8.06-.15.16-.27.29-.35.14-.09.33-.11.7-.15l1.67-.17c.44-.04.66-.07.83.02.15.07.27.2.35.36.09.18.09.43.09.92v7.32c0,.49,0,.74-.09.92-.08.16-.2.29-.35.36-.17.08-.39.06-.83.02l-1.67-.17c-.37-.04-.56-.06-.7-.15-.12-.08-.22-.2-.29-.35-.07-.17-.07-.38-.07-.8v-6.98Zm13.64-15.51h-2.64v39h2.64c1.52,0,2.29,0,2.87-.3.51-.26.93-.68,1.19-1.19.3-.58.3-1.35.3-2.88V9.37c0-1.53,0-2.29-.3-2.88-.26-.51-.68-.93-1.19-1.19-.58-.3-1.34-.3-2.87-.3Z"/>
</svg>