<svg width="53" height="57" viewBox="0 0 53 57" fill="none" xmlns="http://www.w3.org/2000/svg">
<path d="M46.2749 9.25247L33.3679 1.82673C29.1449 -0.608911 23.9702 -0.608911 19.7471 1.82673L6.78065 9.25247C2.61709 11.6881 0 16.203 0 21.0148V35.9257C0 40.797 2.61709 45.2525 6.78065 47.6881L19.6877 55.1733C23.9107 57.6089 29.0854 57.6089 33.3084 55.1733L46.2155 47.6881C50.4385 45.2525 52.9961 40.797 52.9961 35.9257V21.0148C53.1151 16.203 50.498 11.6881 46.2749 9.25247ZM26.5278 41.7475C19.2118 41.7475 13.2639 35.8069 13.2639 28.5C13.2639 21.1931 19.2118 15.2525 26.5278 15.2525C33.8438 15.2525 39.8512 21.1931 39.8512 28.5C39.8512 35.8069 33.9032 41.7475 26.5278 41.7475Z" fill="#EDEDEF"/>
</svg>
