<?xml version="1.0" encoding="utf-8"?>
<!-- Generator: Adobe Illustrator 27.7.0, SVG Export Plug-In . SVG Version: 6.00 Build 0)  -->
<svg version="1.1"
	 id="_3tPmdtZQ0LGlljQGEkT-3" xmlns:inkscape="http://www.inkscape.org/namespaces/inkscape" xmlns:sodipodi="http://sodipodi.sourceforge.net/DTD/sodipodi-0.dtd" xmlns:svg="http://www.w3.org/2000/svg"
	 xmlns="http://www.w3.org/2000/svg" xmlns:xlink="http://www.w3.org/1999/xlink" x="0px" y="0px" viewBox="0 0 80.7 107.6"
	 style="enable-background:new 0 0 80.7 107.6;" xml:space="preserve">
<style type="text/css">
	.st0{fill:#FFB380;}
	.st1{fill:#8DCAFF;}
	.st2{fill:#C0D9B4;}
</style>
<sodipodi:namedview  bordercolor="#666666" borderopacity="1.0" fit-margin-bottom="0" fit-margin-left="0" fit-margin-right="0" fit-margin-top="0" id="namedview21" inkscape:current-layer="_3tPmdtZQ0LGlljQGEkT-3" inkscape:cx="298.83666" inkscape:cy="77.853919" inkscape:document-units="mm" inkscape:pagecheckerboard="0" inkscape:pageopacity="0.0" inkscape:pageshadow="2" inkscape:snap-global="false" inkscape:window-height="1067" inkscape:window-maximized="0" inkscape:window-width="1792" inkscape:window-x="0" inkscape:window-y="25" inkscape:zoom="1.4707031" pagecolor="#ffffff" showgrid="false" units="px">
	</sodipodi:namedview>
<g id="_WTrHMt3eZfxcQKrYJirRK" transform="matrix(0.95294163,0,0,0.95294163,-45.741197,-190.14988)">
	<path id="_1MYZsbAYvxe5D-50H3pho" d="M131,286.1L122,295l0,0L131,286.1l-10.2-10.2l0,0L131,286.1z"/>
	<path id="_oL3QJlwkbW1Nmdh3qAlDC" d="M108.7,258.1"/>
	<path id="_sK1htog-8Op55rgRI5hDg" class="st0" d="M104.5,259.4L104.5,259.4L104.5,259.4l-6.2,6.2c3.2,1.5,5.4,4.8,5.4,8.7
		c0,5.3-4.3,9.6-9.6,9.6c-3.8,0-7.1-2.3-8.7-5.4l-7.4,7.4l-0.1,0.1l26.5,26.5l10.2-10.2l0,0c-4,0-7.4-3.3-7.4-7.4
		c0-4.2,3.3-7.4,7.4-7.4c4,0,7.4,3.3,7.4,7.4l8.9-8.9l-10.2-10.1l0,0L120,275c0.1,0,0.4,0,0.5,0c4,0,7.4-3.3,7.4-7.4
		c0-1.9-0.8-3.5-1.9-4.9c-1.3-1.1-3-1.9-4.9-1.9c-4,0-7.4,3.3-7.4,7.4c0,0.1,0,0.4,0,0.5l-0.5-0.5l0,0L104.5,259.4z"/>
	<path id="_OMWHsyuaoclMfPE9tvM7V" class="st1" d="M86.2,255.2c-5.3,0-9.6-4.3-9.6-9.6c0-3.8,2.1-7.1,5.3-8.6l-7.4-7.4l0,0L48,256.1
		l28,28l12-12c-0.4,0.8-0.5,1.6-0.5,2.5c0,3.7,3,6.7,6.7,6.7c3.7,0,6.7-3,6.7-6.7s-3-6.7-6.7-6.7c-0.9,0-1.8,0.1-2.5,0.5l10.8-10.8
		l-7.6-7.6C93.2,252.9,90,255.2,86.2,255.2z"/>
	<path id="_jAk8zpl6O80_21e1JT4hk" class="st2" d="M132.7,227.5l-11-11c0.1,0,0.4,0,0.5,0c4,0,7.4-3.3,7.4-7.4c0-4-3.3-7.3-7.4-7.3
		c-4,0-7.4,3.3-7.4,7.4c0,0.1,0,0.4,0,0.5l-10.2-10.2L78.1,226l-0.9,1l-0.5,0.5l12,12c-0.8-0.3-1.5-0.4-2.3-0.4
		c-3.7,0-6.7,3-6.7,6.7c0,3.7,3,6.7,6.7,6.7c3.7,0,6.7-3,6.7-6.7c0-0.6-0.1-1.1-0.3-1.8c0-0.3-0.1-0.4-0.1-0.6l0.6,0.6l11.6,11.6
		l0.5-0.5l1-1l8.6-8.6l0,0c-4,0-7.4-3.3-7.4-7.4s3.3-7.4,7.4-7.4c4,0,7.4,3.3,7.4,7.4l0,0L132.7,227.5z"/>
	<path id="_GDSYpBtYoW2GJpRZoPCot" d="M104.5,259.3"/>
	<path id="_NldltLD5fZQlQrgFsakaC" d="M104.5,259.3"/>
	<path id="_TbX_b0jxU8J0Cb3YWVDy6" d="M92.7,244h0.4l-0.5-0.6C92.6,243.5,92.6,243.8,92.7,244z"/>
</g>
</svg>
