<?xml version="1.0" encoding="UTF-8" standalone="no"?>
<svg
   xmlns:dc="http://purl.org/dc/elements/1.1/"
   xmlns:cc="http://creativecommons.org/ns#"
   xmlns:rdf="http://www.w3.org/1999/02/22-rdf-syntax-ns#"
   xmlns:svg="http://www.w3.org/2000/svg"
   xmlns="http://www.w3.org/2000/svg"
   xmlns:sodipodi="http://sodipodi.sourceforge.net/DTD/sodipodi-0.dtd"
   xmlns:inkscape="http://www.inkscape.org/namespaces/inkscape"
   version="1.0"
   width="192px"
   height="192px"
   viewBox="0 0 192 192"
   preserveAspectRatio="xMidYMid meet"
   id="svg20"
   sodipodi:docname="logo.svg"
   inkscape:version="1.0.2 (e86c870879, 2021-01-15, custom)"
   inkscape:export-filename="/home/f3bruary/git/nzb360/pom-chi/assets/img/logo.png"
   inkscape:export-xdpi="128"
   inkscape:export-ydpi="128">
  <metadata
     id="metadata26">
    <rdf:RDF>
      <cc:Work
         rdf:about="">
        <dc:format>image/svg+xml</dc:format>
        <dc:type
           rdf:resource="http://purl.org/dc/dcmitype/StillImage" />
      </cc:Work>
    </rdf:RDF>
  </metadata>
  <defs
     id="defs24" />
  <sodipodi:namedview
     pagecolor="#ffffff"
     bordercolor="#666666"
     borderopacity="1"
     objecttolerance="10"
     gridtolerance="10"
     guidetolerance="10"
     inkscape:pageopacity="0"
     inkscape:pageshadow="2"
     inkscape:window-width="1920"
     inkscape:window-height="1008"
     id="namedview22"
     showgrid="false"
     inkscape:zoom="2.890625"
     inkscape:cx="58.227443"
     inkscape:cy="110.52989"
     inkscape:window-x="0"
     inkscape:window-y="40"
     inkscape:window-maximized="1"
     inkscape:current-layer="svg20" />
  <g
     fill="#2d373c"
     id="g4">
    <path
       d="m 71.2,163.7 c -19.1,-19.1 -19.3,-19.4 -19,-23.3 0.3,-3.7 0.7,-4.1 7.6,-8.3 L 67,127.7 V 99.9 72 h 3.5 c 1.9,0 3.5,0.5 3.5,1 0,0.6 0.7,1 1.7,1 0.9,0 6.8,2.7 13,6 6.3,3.3 11.7,6 11.9,6 0.2,0 0.4,-2.9 0.4,-6.5 V 73 h 3.8 c 3.3,0 4.5,0.8 9.7,6 3.3,3.3 6.5,6 7.2,6 1,0 1.3,4 1.3,18 v 18 h -3 c -1.7,0 -9,-3 -17.1,-7 l -14,-7.1 0.3,4.8 0.3,4.7 21,10.8 c 11.6,5.9 21.3,10.8 21.8,10.8 0.4,0 0.7,-8 0.7,-17.7 0,-9.8 0.3,-28.9 0.7,-42.5 L 134.3,53 h 3.1 c 2.7,0 5.9,2.8 24.6,21.5 L 183.23518,97.043543 182.8,105.2 c -0.9,10.3 -5.2,24.2 -10,32.8 -15.6,27.5 -44.6,45 -74.5,45 h -7.8 z"
       id="path2"
       sodipodi:nodetypes="scccccssscsscsssscscccccssccsscccscs" />
  </g>
  <g
     fill="#364147"
     id="g10">
    <path
       d="m 77.5,181.3 c -28.4,-6 -53,-27 -63.1,-53.9 -3.8,-10.1 -5.5,-19.8 -5.5,-31.5 0,-24.8 9,-46 26.9,-63.1 C 59.3,10.4 92,2.9 123.3,13 c 13.4,4.3 23.5,10.6 34.3,21.4 15,15 23.4,32.6 25.2,52.9 0.6045,9.72624 0.43518,9.743543 0.26242,12.682949 C 183.02135,100.68174 170.7,89.2 158.8,77.3 L 137,55.5 v 16 C 137,88.7 136.5,92 134.4,92 133.3,92 133,89 133,76.5 V 61 l -5,3.1 -5,3.1 v 11.9 c 0,9.9 -0.3,11.9 -1.5,11.9 -0.8,0 -1.5,-0.7 -1.5,-1.5 0,-0.8 -0.6,-1.5 -1.3,-1.5 -0.7,0 -3.9,-2.7 -7.2,-6 -3.3,-3.3 -6.3,-6 -6.6,-6 -0.4,0 -0.9,1 -1.1,2.2 -0.3,2 -0.4,2 -1.9,0.6 C 101,77.9 90.5,72.2 78.6,66.1 L 57,55 v 41.6 c 0.1,31.3 -0.2,42 -1.1,43.1 -1.1,1.2 2.1,4.8 18.9,21.6 11.1,11.1 20.2,20.6 20.2,21 0,1.2 -10,0.6 -17.5,-1 z"
       id="path6"
       sodipodi:nodetypes="ccsccscsscssscccssssssccccccssc" />
    <path
       d="M67 76.5 c0 -3.5 0 -3.5 4.5 -3.5 4 0 4.5 0.2 4.5 2.3 0 2 -0.4 2.3 -3 1.9 -2.3 -0.3 -3 0 -3 1.2 0 0.9 -0.7 1.6 -1.5 1.6 -1 0 -1.5 -1.1 -1.5 -3.5z"
       id="path8" />
  </g>
  <g
     fill="#61c05c"
     id="g14">
    <path
       d="M110.5 131.7 l-24 -12.3 -0.3 -9.2 -0.3 -9.2 17.1 8.5 17 8.5 0 -26.9 0 -27 7.5 -4.5 c4.2 -2.5 7.8 -4.6 8 -4.6 0.3 0 0.5 20 0.5 44.5 0 24.5 -0.3 44.5 -0.7 44.5 -0.5 0 -11.6 -5.6 -24.8 -12.3z"
       id="path12" />
  </g>
  <g
     fill="#fdfdfd"
     id="g18">
    <path
       d="M54 94.6 l0 -45.6 25 12.7 25 12.8 0 8.7 c0 4.9 -0.2 8.8 -0.5 8.8 -0.3 0 -8 -3.9 -17 -8.6 l-16.5 -8.6 0 28 0 28 -7.2 4.3 c-4 2.4 -7.6 4.6 -8 4.7 -0.5 0.2 -0.8 -20.2 -0.8 -45.2z"
       id="path16" />
  </g>
</svg>
