<?xml version="1.0" encoding="utf-8"?>
<!-- Generator: Adobe Illustrator 27.7.0, SVG Export Plug-In . SVG Version: 6.00 Build 0)  -->
<svg version="1.1" id="Layer_10" xmlns="http://www.w3.org/2000/svg" xmlns:xlink="http://www.w3.org/1999/xlink" x="0px" y="0px"
	 viewBox="0 0 1639.4 2470" style="enable-background:new 0 0 1639.4 2470;" xml:space="preserve">
<style type="text/css">
	.st0{fill:#FFFFFF;}
</style>
<path class="st0" d="M1497.6,603.8c-2.5-1.7-4.1-4.4-4.4-7.4c-24.2-199.1-211.8-183.5-256.8-176.8c-5.6,0.8-10.9-2.8-12.1-8.4
	c-32.9-159.4,137.6-343.6,203.5-407.8c7.6-7.4,1-20.2-9.4-18.3c-281,50.9-367.9,283.7-392.4,383.3c-2.7,11.1-18.6,10.8-20.9-0.5
	c-25.6-122.5-1.4-245.5,13.5-302.8c2.7-10.3-9.6-17.8-17.5-10.7c-189.1,170-127,413.5-96.6,499.9c3.6,10.1-8.3,18.6-16.8,12
	c-68.7-53.6-109.4-136.8-127.1-180c-3.9-9.5-17.7-8.6-20.3,1.4c-37.1,140.7,42.7,323.4,68.7,377.5c4.7,9.7,3.3,21.3-3.6,29.7
	L683.1,943.5c-6,7.3-14.7,11.8-24,12.4c-52.5,3.8-242.1,31.2-439.1,228.2C43.6,1360.5,12.9,1574,8.2,1622.2
	c-0.6,5.7,3.4,10.8,9,11.7c25.1,3.9,96,12.6,191.6,5.4c145.4-11,347.8-59.1,531.9-217.7c7.9-6.8,19.9,0.4,17.5,10.6
	c-38.3,161.2-113.6,275.6-196,356.4c-1.4,1.4-2.4,3.1-2.9,5c-12.2,47.2-21.9,93.9-29.6,139.5c0,0,667.5-88.3,747.6-960.8
	c0.5-5.1,4.4-9.2,9.6-9.7c38-4,190.5-24.5,270-103.7c0-0.1-0.1-0.1-0.1-0.2c-0.4-0.6-41.1-61-107.2-70.5c-0.8-0.1-1.6-0.2-2.3-0.2
	c-9.3-0.6-42.2-3.5-76.4-17.5c-6.6-2.7-9.8-10.3-7.1-17c1.3-3.2,3.8-5.7,7-7.1c3.2-1.3,6.7-1.3,9.9,0c31.2,12.8,62.2,15.3,68.1,15.6
	c1.4,0.1,2.9,0.2,4.4,0.5c58.9,8.4,99.2,49.2,116.2,69.9c1.8,2,3.6,4,5.2,6.1l0,0c0,0,6.8,8.8,9.8,13.2
	c10.6,15.6,17.9,31.2,22.7,43.7c3.6,9.2,16.6,9.2,20,0C1684.1,743,1524.9,623,1497.6,603.8L1497.6,603.8L1497.6,603.8z
	 M1226.5,680.7c-30.9,0-56-25.1-56-56s25.1-56,56-56s56,25.1,56,56S1257.5,680.7,1226.5,680.7z"/>
<g>
	<path class="st0" d="M590,1770.7c-71.8,69.8-148.9,114.2-211.7,141.9c0,0-48.8,76,149.1,550.8c4.8,11.5,22.1,7,20.6-5.4
		c-13.3-109.2-27.3-313.5,11.7-544.9C567.5,1866.6,577.5,1818.9,590,1770.7L590,1770.7L590,1770.7z"/>
	<path class="st0" d="M593.2,1772.1L593.2,1772.1c78.9-81.7,150-195.7,184.5-353.8c2.9-13.5-13.1-22.8-23.4-13.6
		c-177,158.8-374,211.9-516.9,227.3c-29.5,243.6,1.4,312.4,14.3,329.9c2.6,3.4,6.9,5,11.1,4.1c16.1-3.8,63.2-16.5,123.3-45.2l0,0
		C448,1890.9,523.6,1844.1,593.2,1772.1L593.2,1772.1L593.2,1772.1z"/>
</g>
</svg>
