<?xml version="1.0" encoding="UTF-8"?>
<svg id="Layer_1" data-name="Layer 1" xmlns="http://www.w3.org/2000/svg" xmlns:xlink="http://www.w3.org/1999/xlink" viewBox="0 0 655.74 793.42">
  <defs>
    <style>
      .cls-1 {
        fill: rgba(3, 54, 71, 0);
      }

      .cls-2 {
        fill: #fff;
      }

      .cls-3 {
        fill: rgba(237, 137, 46, 0);
      }

      .cls-4, .cls-5 {
        fill: none;
      }

      .cls-5 {
        clip-path: url(#clippath);
      }
    </style>
    <clipPath id="clippath">
      <rect class="cls-4" x="-274.06" y="-286.58" width="1080" height="1080"/>
    </clipPath>
  </defs>
  <g class="cls-5">
    <g id="Layer-1">
      <g>
        <path class="cls-3" d="m-552.16-541.83v1653.18h1653.18V-541.83H-552.16Z"/>
        <path class="cls-1" d="m70.51,232.67c-6.26-6.26-16.15,3.83-16.15-10.5,0-9.49,29.32-32.87,21.81-40.38-6.21,3.1-12.55-5.8-8.88-11.31,8.05-12.07,18.33-26.06,29.88-34.73-2.67-3.34-6.37-4.93-8.88-8.08-8.24-10.31,31.28-24.82,37.15-30.69,4.97-4.97-13.51-13.43-3.23-18.58,12.5-6.25,30.87-3.34,42.8-10.5,6.15-3.69-11.18-10.85-.81-17.77,8.29-5.53,19.92-.81,29.88-.81,4.46,0,16.58,3.61,20.19,0-9.83-19.67,17.69-11.85,29.88-10.5,23.73,2.64,59.24,6.07,79.15,21,30.33,22.75,56.66,37.9,77.53,72.68,7.77,12.96,12.78,28.19,16.96,42.8,1.54,5.38,1.91,17.59,6.46,21,8.12,6.09,27.83,6.35,37.96,8.88,33.68,8.42,67.72,16.61,101.76,23.42,15.71,3.14,43.85,5.92,46.03,26.65,4.24,40.31-30.95,34.81-59.76,32.3-18.02-1.57-36.02-3.34-54.11-1.61-91.05,8.67-192.7,6.64-217.25,117.1-14.02,63.08,11.17,121.61,33.92,178.48,16.28,40.7,32.94,81.05,46.84,122.76,7.27,21.81,13.18,44.34,16.96,67.03.52,3.09,1.5,21.73,5.65,21.8,46.3.79,92.61.25,138.91,0,31.27-.17,70.2-17.4,97.72-33.92,72.42-43.45,117.67-124.45,117.91-208.36.51-179.02.81-358.04.81-537.06,0-125.59-112.77-238.62-237.44-239.05-149.41-.52-298.82-.81-448.23-.81-30.69,0-60.63,7.29-88.84,18.58-19.87,7.95-40.48,20.93-57.34,34.73-63.36,51.84-92.02,117.87-92.88,198.67-.42,39.57-.29,79.15-.81,118.72-.89,68.1,0,136.22,0,204.33v129.22c0,32.43-1.36,65.17.81,97.72,4.4,65.96,57.95,152.94,115.49,181.71,19.32,9.66,41.35,25.47,62.99,29.08,36.96,6.16,75.21,3.77,114.68,4.84,26.38.72,52.77,2.42,79.15,1.61,1.14-.03,2.27-1.29,2.42-2.43,1.13-8.67,1.28-24.53-3.23-25.03-8.13-.9-16.15,2.72-16.15-7.27s12.04-6.31,15.34-12.92c2-4.01-2.38-24.21-7.27-26.65-5.11-2.56-11.86,5.53-16.15-1.61-7.5-12.5,10.29-11.99,12.92-18.58,1.61-4.01-4.43-19.37-6.46-23.42-3.1-6.19-15.03,4.51-20.19-3.23-7.25-10.88,13.98-12.76,12.92-20.19-.53-3.74-4.62-20.59-8.88-21.81-5.49-1.57-17.14,7.34-19.38-1.61-2.94-11.75,9.13-10.18,12.92-17.77,1.39-2.77-6.07-19.94-8.08-22.61-4.58-6.11-18.51,7.15-21-4.04-2.39-10.74,9.23-9.69,12.92-16.15,1.95-3.41-4.9-18.84-7.27-21.81-5.78-7.22-15.03,5.72-21-3.23-7.2-10.79,14.07-12.96,12.92-21-.52-3.64-4.06-19.66-8.08-21-5.08-1.69-18.29,8.27-19.38-1.61-1.42-12.79,14.73-10.95,13.73-21-.48-4.79-3.83-17.64-8.08-20.19-4.12-2.47-16.82,7.06-17.77-2.42-1.34-13.43,9.58-9.47,13.73-17.77,1.66-3.31-3.13-19.18-4.85-22.61-3.44-6.88-17.28,5.41-20.19-4.04-4.73-15.38,15.56-11.2,14.54-23.42-.27-3.18-1.59-18.3-4.85-19.38-4.22-1.41-15.98,5.61-16.96-3.23-1.77-15.96,16.15-12.45,16.15-18.58,0-4.29-.75-22.32-4.04-23.42-4.9-1.63-14.12,5.71-16.15-2.42-4.63-18.5,16.69-13.5,16.96-21,.25-6.99.5-14.02,0-21-.41-5.74-16.85,4.34-17.77-4.85-1.84-18.44,15.94-13.09,18.58-21,2.07-6.2-.67-14,2.42-20.19Z"/>
        <path class="cls-2" d="m259.5,134.14c-16.58-.42-19.86,29.91-2.42,31.5,24.16,2.2,28.22-30.85,2.42-31.5Z"/>
        <path class="cls-2" d="m220.16,36.05c-9.66.23-16.56,2.62-8.31,10.88-5.93,8.9-71.55-13.13-46.84,17.76-9.25,9.25-31.49,4.01-42.81,12.1-11.17,7.98,5.46,12.55,2.44,18.59-6.21,12.42-59.19,19.53-29.1,39.58-10.39,10.39-23.12,22.05-29.86,35.53-3.2,6.39,3.41,16.46,10.48,12.92.68.68.78.77,1.02,1.02-2.4,2.7-5.09,7.5-5.87,8.67-6.2,9.3-18.56,21.45-18.56,33.12,0,15.88,18.4-6.09,14.53,20.99-1.15,8.07-11.89,11.07-17.77,16.94-2.29,2.29-1.85,7.34-1.61,9.69.97,9.68,13.06,3.5,18.36,4.65-3.55,5.53.12,14.28-.59,21.19-.5,4.8-16.8,6.04-17.77,13.74-2.29,18.32,17.97,10.59,18.56,12.92,1.49,5.97-.35,14.63,2.44,20.2-4.78,4.78-10.26,4.66-15.36,10.48-1.78,2.04-.79,5.37-.79,8.07,0,9.39,13.26,4.11,16.94,4.85,2.39.48,5.38,19.4,4.84,21.82-1.59,7.15-20,5.7-14.53,19.38,3.69,9.22,12.16,3.1,18.59,4.02,2.61.37,2.54,5.81,4.02,7.28-2.35,4.7,3.65,9.68,2.44,14.53-.51,2.03-12.76,10.35-12.92,10.51-10.3,10.3,9.83,16.06,17.77,12.1,2.97,2.97,8.3,17.61,7.25,21.82-1.51,6.03-21.51,9.36-12.92,19.38,7.23,8.43,19.06-.63,20.99,3.23,1.55,3.09,6.59,16.96,5.67,20.17-1.73,6.04-13.74,6.72-13.74,16.15,0,12.85,15.51,3.28,20.2,4.85,3.13,1.04,9.74,18.86,8.9,21.82-2.03,7.11-15.67,6.1-12.95,16.97,3.33,13.31,18.95-.1,21.82,5.64,1.82,3.63,8.21,19.22,5.67,22.61-4.12,5.49-12.13,4.89-12.13,13.74,0,13.44,15.08,4.79,20.99,5.64,3.83.55,5.95,15.67,8.54,21.55-4.3,5.31-15.51,7.06-14.17,16.41,1.85,12.95,16.54,2.58,22.12,9.26-.1.18-.24.22-.33.43-1.61,3.77,5.35,14.08,4.85,18.59-.76,6.83-14.2,5.39-12.92,16.94,1.42,12.8,17.06,1.79,20.2,8.07,1.51,3.02,4.9,19.18,4.02,21.82-2.12,6.37-15.33,3.44-15.33,14.54,0,12.38,17.03,3.6,18.56,9.69,1.82,7.27-5.29,20.58,3.23,24.23,11.62,4.98,29.52,0,41.99,0,26.55,0,51.45,1.1,82.4.82,22.11-.19,44.98.82,67.04,0,1.14-.04,2.16-1.32,2.41-2.44,1.6-7.21-3.38-20.96-4.84-28.28-4.78-23.92-11.68-47.12-19.38-70.24-36.83-110.49-137.89-260.28-36.35-361.82,33.66-33.66,89.42-35.6,133.25-39.58,25.43-2.31,51.18-4.85,76.73-4.85,21.74,0,65.28,16.48,78.34-11.34-19.06,2.1-55.46-5.94-67.43-7.61-56.34-7.89-115.45-21.14-172.37-16.41-18.63,1.55-37.42,3.72-55.96,6.16-5.61.74-17.77,5.3-22.64.82-11.42-10.49,1.49-17.61,11.96-18.98,28.23-3.72,56.66-8.87,85.13-8.4,32.25.53,63.88,6.28,95.81,10.58,19.57,2.64,39.15,4.91,58.7,7.65,19.85,2.78,39.64,6.01,59.52,8.5,1.7.21,6.32.91,10.71,2.14-1.07-18.95-23.92-26.54-41.36-30.42-36.38-8.09-72.87-16.01-109.03-25.05-9.9-2.47-29.08-2.83-37.18-8.9-4.65-3.49-11.8-42.52-17.77-52.47-17.51-29.18-37.84-57.12-67.83-75.11-29.49-17.69-60.58-26.04-95.28-29.89-2.74-.3-15.16-2.21-24.82-1.98Zm35.89,73.56c21.23.72,38.55,11.24,47.82,34.01,10.75,26.41-8.14,71.42-41.63,71.42-14.33,0-30.78-.54-41.66-11.24-32.54-31.98-23.43-89.39,26.14-93.9,3.18-.29,6.29-.4,9.33-.3Zm-79.46,566.7c-.35.46-.75.79-1.09,1.35-.6-.3-1.23-.54-1.85-.79.94-.21,1.94-.38,2.93-.56Z"/>
        <path d="m504.97,139.59h-1.43c-6.58-32.26-35.18-56.63-69.36-56.63-25.21,0-47.24,13.35-59.79,33.27-7.26-3.28-15.26-4.95-25.16-4.95s-17.88,1.67-25.16,4.95c-12.54-19.91-34.57-33.27-59.79-33.27-34.18,0-62.77,24.37-69.36,56.63h-1.43c-7.83,0-14.16,6.34-14.16,14.16s6.33,14.16,14.16,14.16h1.43c6.58,32.27,35.18,56.63,69.36,56.63,39.03,0,70.79-31.76,70.79-70.79,0-3.74-.54-7.33-1.1-10.91,4.09-2.31,8.49-3.24,15.26-3.24s11.21.91,15.26,3.21c-.57,3.6-1.1,7.19-1.1,10.94,0,39.03,31.75,70.79,70.79,70.79,34.17,0,62.77-24.36,69.36-56.63h1.43c7.83,0,14.16-6.34,14.16-14.16s-6.33-14.16-14.16-14.16Z"/>
        <path class="cls-2" d="m365.31,176.36s13.47-2.67,33.74,1.56c39.68,8.29,45.58,22.33,79.76,30.25l-6.1,9.07-6.1,9.07-26.52-.37-26.52-.37-14.7-3.56-14.7-3.56-7.11-6.25-7.11-6.25-2.32-14.79-2.32-14.79Z"/>
      </g>
    </g>
  </g>
</svg>