<?xml version="1.0" encoding="utf-8"?>
<!-- Generator: Adobe Illustrator 27.7.0, SVG Export Plug-In . SVG Version: 6.00 Build 0)  -->
<svg version="1.1" id="Layer_1" xmlns="http://www.w3.org/2000/svg" xmlns:xlink="http://www.w3.org/1999/xlink" x="0px" y="0px"
	 viewBox="0 0 384.9 392.5" style="enable-background:new 0 0 384.9 392.5;" xml:space="preserve">
<style type="text/css">
	.st0{fill:#2196F3;}
	.st1{fill:#BBDEFB;}
</style>
<path class="st0" d="M384.1,386.4l-13.8-20.2c-2-2.9-4.4-5.7-6.8-8.3l-114-119.1c0.3-7.1-4.1-15.3-9.1-20.8l-10.2-12.7
	c25.9-3.6,68.8-13.9,101.2-29.4c57-27.3,61.8-75.9,32.3-79.9c-28.8-3.9-69.3,61.3-136.3,98.1c22.8-21.5,54.6-57.5,74.4-92
	c37.2-64.7,9.5-115-21.8-99.2c-30.2,15.3-26.6,103.5-65.6,183c-3.6-3.4-8.2-5.1-13-5.3c1.6-4.3,0.7-9.3-2.7-12.8
	c-4.8-5-12.7-5.1-17.6-0.4c-0.4,0.4-0.7,0.8-1,1.1c-2.7-0.6-5.7,0.1-7.8,2.1c-2.1,2-3,5-2.5,7.7c-0.3,0.3-0.8,0.6-1.1,0.9
	c-5,4.8-5.1,12.7-0.4,17.6c3.4,3.6,8.4,4.7,12.8,3.2c-0.1,4.1,1.1,8.3,3.6,11.8c-80,33.4-165.2,26.7-181.4,55.7
	c-17.2,30.5,32,60.4,98.1,26.1c35.5-18.4,73.1-49,95.5-70.7l1.9,1.6c-40,60-101,95.7-98.5,123.3c2.7,29.6,51.4,26.9,81.3-28.8
	c13.7-25.6,24.1-58.1,30.2-83.3l4.6,3.9c4.9,5.4,13,10.4,20.2,10.6L352,370.6c2.5,2.6,5.3,5,8.2,7.2l18.4,13.8
	C382.1,394.3,386.6,390,384.1,386.4z"/>
<path class="st1" d="M212,189.7c0,0,1.6,5.3-1.5,8.5c-3,3.1-2.7,6.5-1.5,8.2c1.2,1.6,1.1,2.9,0.2,3.8c-1,0.9-1.8,1.6-2.4,0.1
	c-0.6-1.5-1.2-1.5-1.5-2.2c-0.2-0.7-0.7-2-0.7-2s-1.6,2.5-2.5,3.9c-1,1.5-1,3.8-0.3,5s0.4,2.7-0.1,4.7c-0.5,2,0.2,5.2,2.5,6.4
	c2.3,1.2,5.1,2.2,6.3,3.4c1.2,1.1,4.1,2.2,7.8,1.4s8.4-4.6,9.2-7.1c0,0,2.1-2.4,1.7-5.5c-0.4-3.1-1.9-3-2.5-5.4
	c-0.7-2.4,1.4-1.8-0.3-5.9c0,0-0.8-1.9-3.7-3.3c-1.9-0.9-0.6-5-4-9.1C215.3,190.4,212,189.7,212,189.7z"/>
</svg>
