<?xml version="1.0" encoding="utf-8"?>
<!-- Generator: Adobe Illustrator 27.7.0, SVG Export Plug-In . SVG Version: 6.00 Build 0)  -->
<svg version="1.1"
	 id="svg5" xmlns:sodipodi="http://sodipodi.sourceforge.net/DTD/sodipodi-0.dtd" xmlns:svg="http://www.w3.org/2000/svg" xmlns:inkscape="http://www.inkscape.org/namespaces/inkscape" sodipodi:docname="finampLogo.svg"
	 xmlns="http://www.w3.org/2000/svg" xmlns:xlink="http://www.w3.org/1999/xlink" x="0px" y="0px" viewBox="0 0 494.6 607.2"
	 style="enable-background:new 0 0 494.6 607.2;" xml:space="preserve">
<style type="text/css">
	.st0{fill:#8374D3;fill-opacity:0.9765;}
	.st1{fill:url(#path357-3_00000182527868473719001400000013704896228872192902_);}
	.st2{fill:#4F87D3;}
	.st3{fill:url(#path129-6_00000130628248918245679600000009278810846177366178_);}
</style>
<sodipodi:namedview  bordercolor="#666666" borderopacity="1.0" id="namedview7" inkscape:current-layer="layer1" inkscape:cx="113.65139" inkscape:cy="371.86734" inkscape:document-units="mm" inkscape:pagecheckerboard="0" inkscape:pageopacity="0.0" inkscape:pageshadow="2" inkscape:window-height="1387" inkscape:window-maximized="1" inkscape:window-width="2560" inkscape:window-x="1912" inkscape:window-y="22" inkscape:zoom="0.5499273" pagecolor="#ffffff" showgrid="false">
	</sodipodi:namedview>
<g id="layer1" inkscape:groupmode="layer" inkscape:label="Layer 1">
	
		<g id="g19295" transform="matrix(2.7448971,0,0,2.7448971,-85.149304,-350.17468)" inkscape:export-filename="C:\Users\Sivilian\Pictures\Finamp.png" inkscape:export-xdpi="113" inkscape:export-ydpi="113">
		<path id="path357" sodipodi:nodetypes="ssssss" class="st0" d="M168.8,222.8c2.2,5.1-2.2,11.7-19.8,30
			c-18.8,19.6-24.1,23.1-31.9,20.7c-7.8-2.3-10.3-8.1-15.3-34.8c-7.7-40.8-5.1-43.1,35-31.2C157.1,213.7,166.9,218.3,168.8,222.8
			L168.8,222.8z"/>
		
			<linearGradient id="path357-3_00000144309739297552481950000018172149902248204205_" gradientUnits="userSpaceOnUse" x1="-142.2585" y1="372.5632" x2="-157.715" y2="369.69" gradientTransform="matrix(7.7808 0 0 -7.7808 1276.5518 3126.3811)">
			<stop  offset="0" style="stop-color:#AC5FC8"/>
			<stop  offset="1" style="stop-color:#AC5FC8;stop-opacity:0"/>
		</linearGradient>
		
			<path id="path357-3" sodipodi:nodetypes="ssssss" style="fill:url(#path357-3_00000144309739297552481950000018172149902248204205_);" d="
			M168.8,222.8c2.2,5.1-2.2,11.7-19.8,30c-18.8,19.6-24.1,23.1-31.9,20.7c-7.8-2.3-10.3-8.1-15.3-34.8c-7.7-40.8-5.1-43.1,35-31.2
			C157.1,213.7,166.9,218.3,168.8,222.8L168.8,222.8z"/>
	</g>
	
		<path id="path129" inkscape:export-filename="C:\Users\Sivilian\Pictures\Finamp.png" inkscape:export-xdpi="113" inkscape:export-ydpi="113" sodipodi:nodetypes="cccccccc" class="st2" d="
		M128.7,607.2c118.9-137.3-188-534.7,121.1-483.3c37.9,5.9,70.3,8.5,125.9,3c77.3-46.6,69.1-60.2,118.9-107.3
		c-253.8,3.1-157.8,18.7-297.4-5.2c-46.8-8-115.8-27.1-160.2-1.4C-11,40.8,0.2,128.2,3.6,174.3C13.5,308.8,35.4,504.3,128.7,607.2"
		/>
	
		<linearGradient id="path129-6_00000076597390755059775030000014895161585007931827_" gradientUnits="userSpaceOnUse" x1="-576.0926" y1="672.2292" x2="-617.9504" y2="669.5831" gradientTransform="matrix(7.7808 0 0 -7.7808 4904.8047 5514.2451)">
		<stop  offset="0" style="stop-color:#03A2DB"/>
		<stop  offset="1" style="stop-color:#03A2DB;stop-opacity:0"/>
	</linearGradient>
	
		<path id="path129-6" inkscape:export-filename="C:\Users\Sivilian\Pictures\Finamp.png" inkscape:export-xdpi="113" inkscape:export-ydpi="113" sodipodi:nodetypes="cccccccc" style="fill:url(#path129-6_00000076597390755059775030000014895161585007931827_);" d="
		M128.7,607.2c118.9-137.3-188-534.7,121.1-483.3c37.9,5.9,70.3,8.5,125.9,3c77.3-46.6,69.1-60.2,118.9-107.3
		c-253.8,3.1-157.8,18.7-297.4-5.2c-46.8-8-115.8-27.1-160.2-1.4C-11,40.8,0.2,128.2,3.6,174.3C13.5,308.8,35.4,504.3,128.7,607.2"
		/>
</g>
</svg>
