<?xml version="1.0" encoding="utf-8"?>
<!-- Generator: Adobe Illustrator 27.7.0, SVG Export Plug-In . SVG Version: 6.00 Build 0)  -->
<svg version="1.1" id="Layer_1" xmlns="http://www.w3.org/2000/svg" xmlns:xlink="http://www.w3.org/1999/xlink" x="0px" y="0px"
	 viewBox="0 0 44 44" style="enable-background:new 0 0 44 44;" xml:space="preserve">
<style type="text/css">
	.st0{fill:url(#SVGID_1_);}
</style>
<linearGradient id="SVGID_1_" gradientUnits="userSpaceOnUse" x1="-510.0002" y1="326.8849" x2="-488.0002" y2="304.8849" gradientTransform="matrix(2.2 0 0 -2.2 1122 719.1225)">
	<stop  offset="0" style="stop-color:#AA5CC3"/>
	<stop  offset="1" style="stop-color:#00A4DC"/>
</linearGradient>
<path class="st0" d="M22,17.7c-2.4,0-4.3,1.9-4.3,4.3s1.9,4.3,4.3,4.3s4.3-1.9,4.3-4.3S24.4,17.7,22,17.7z M22,0C9.9,0,0,9.8,0,22
	s9.9,22,22,22s22-9.9,22-22S34.1,0,22,0z M22,12.1c5.5,0,9.9,4.4,9.9,9.9s-4.4,9.9-9.9,9.9s-9.9-4.4-9.9-9.9S16.5,12.1,22,12.1z"/>
</svg>
