<?xml version="1.0" encoding="utf-8"?>
<!-- Generator: Adobe Illustrator 27.7.0, SVG Export Plug-In . SVG Version: 6.00 Build 0)  -->
<svg version="1.1"
	 id="svg20" xmlns:cc="http://creativecommons.org/ns#" xmlns:dc="http://purl.org/dc/elements/1.1/" xmlns:rdf="http://www.w3.org/1999/02/22-rdf-syntax-ns#" xmlns:sodipodi="http://sodipodi.sourceforge.net/DTD/sodipodi-0.dtd" xmlns:svg="http://www.w3.org/2000/svg" xmlns:inkscape="http://www.inkscape.org/namespaces/inkscape" inkscape:export-filename="/home/f3bruary/git/nzb360/pom-chi/assets/img/logo.png" sodipodi:docname="logo.svg"
	 xmlns="http://www.w3.org/2000/svg" xmlns:xlink="http://www.w3.org/1999/xlink" x="0px" y="0px" viewBox="0 0 174.3 174.4"
	 style="enable-background:new 0 0 174.3 174.4;" xml:space="preserve">
<style type="text/css">
	.st0{fill:#2D373C;}
	.st1{fill:#364147;}
	.st2{fill:#61C05C;}
	.st3{fill:#FDFDFD;}
</style>
<sodipodi:namedview  bordercolor="#666666" borderopacity="1" gridtolerance="10" guidetolerance="10" id="namedview22" inkscape:current-layer="svg20" inkscape:cx="58.227443" inkscape:cy="110.52989" inkscape:pageopacity="0" inkscape:pageshadow="2" inkscape:window-height="1008" inkscape:window-maximized="1" inkscape:window-width="1920" inkscape:window-x="0" inkscape:window-y="40" inkscape:zoom="2.890625" objecttolerance="10" pagecolor="#ffffff" showgrid="false">
	</sodipodi:namedview>
<g id="g4">
	<path id="path2" sodipodi:nodetypes="scccccssscsscsssscscccccssccsscccscs" class="st0" d="M62.3,155.1
		c-19.1-19.1-19.3-19.4-19-23.3c0.3-3.7,0.7-4.1,7.6-8.3l7.2-4.4V91.3V63.4h3.5c1.9,0,3.5,0.5,3.5,1c0,0.6,0.7,1,1.7,1
		c0.9,0,6.8,2.7,13,6c6.3,3.3,11.7,6,11.9,6c0.2,0,0.4-2.9,0.4-6.5v-6.5h3.8c3.3,0,4.5,0.8,9.7,6c3.3,3.3,6.5,6,7.2,6
		c1,0,1.3,4,1.3,18v18h-3c-1.7,0-9-3-17.1-7l-14-7.1l0.3,4.8l0.3,4.7l21,10.8c11.6,5.9,21.3,10.8,21.8,10.8c0.4,0,0.7-8,0.7-17.7
		c0-9.8,0.3-28.9,0.7-42.5l0.6-24.8h3.1c2.7,0,5.9,2.8,24.6,21.5l21.2,22.5l-0.4,8.2c-0.9,10.3-5.2,24.2-10,32.8
		c-15.6,27.5-44.6,45-74.5,45h-7.8L62.3,155.1z"/>
</g>
<g id="g10">
	<path id="path6" sodipodi:nodetypes="ccsccscsscssscccssssssccccccssc" class="st1" d="M68.6,172.7c-28.4-6-53-27-63.1-53.9
		C1.7,108.7,0,99,0,87.3c0-24.8,9-46,26.9-63.1C50.4,1.8,83.1-5.7,114.4,4.4c13.4,4.3,23.5,10.6,34.3,21.4
		c15,15,23.4,32.6,25.2,52.9c0.6,9.7,0.4,9.7,0.3,12.7c0,0.7-12.4-10.8-24.3-22.7l-21.8-21.8v16c0,17.2-0.5,20.5-2.6,20.5
		c-1.1,0-1.4-3-1.4-15.5V52.4l-5,3.1l-5,3.1v11.9c0,9.9-0.3,11.9-1.5,11.9c-0.8,0-1.5-0.7-1.5-1.5s-0.6-1.5-1.3-1.5
		c-0.7,0-3.9-2.7-7.2-6c-3.3-3.3-6.3-6-6.6-6c-0.4,0-0.9,1-1.1,2.2c-0.3,2-0.4,2-1.9,0.6c-0.9-0.9-11.4-6.6-23.3-12.7L48.1,46.4V88
		c0.1,31.3-0.2,42-1.1,43.1c-1.1,1.2,2.1,4.8,18.9,21.6c11.1,11.1,20.2,20.6,20.2,21C86.1,174.9,76.1,174.3,68.6,172.7z"/>
	<path id="path8" class="st1" d="M58.1,67.9c0-3.5,0-3.5,4.5-3.5c4,0,4.5,0.2,4.5,2.3c0,2-0.4,2.3-3,1.9c-2.3-0.3-3,0-3,1.2
		c0,0.9-0.7,1.6-1.5,1.6C58.6,71.4,58.1,70.3,58.1,67.9z"/>
</g>
<g id="g14">
	<path id="path12" class="st2" d="M101.6,123.1l-24-12.3l-0.3-9.2L77,92.4l17.1,8.5l17,8.5V82.5v-27l7.5-4.5c4.2-2.5,7.8-4.6,8-4.6
		c0.3,0,0.5,20,0.5,44.5s-0.3,44.5-0.7,44.5C125.9,135.4,114.8,129.8,101.6,123.1z"/>
</g>
<g id="g18">
	<path id="path16" class="st3" d="M45.1,86V40.4l25,12.7l25,12.8v8.7c0,4.9-0.2,8.8-0.5,8.8s-8-3.9-17-8.6l-16.5-8.6v28v28l-7.2,4.3
		c-4,2.4-7.6,4.6-8,4.7C45.4,131.4,45.1,111,45.1,86z"/>
</g>
</svg>
